<svg width="64" height="64" viewBox="0 0 64 64" fill="none" xmlns="http://www.w3.org/2000/svg">
<path d="M27.4 7C26.2042 7 25.2219 7.38281 24.4531 8.14844C23.6844 8.91406 23.3 9.89236 23.3 11.0833V13.125H11V17.2083H13.05V49.875C13.05 51.5339 13.6479 52.98 14.8438 54.2135C16.0823 55.4045 17.5344 56 19.2 56H43.8C45.4656 56 46.8964 55.4045 48.0922 54.2135C49.3307 52.98 49.95 51.5339 49.95 49.875V17.2083H52V13.125H39.7V11.0833C39.7 9.89236 39.3156 8.91406 38.5469 8.14844C37.7781 7.38281 36.7958 7 35.6 7H27.4ZM27.4 11.0833H35.6V13.125H27.4V11.0833ZM17.15 17.2083H45.85V49.875C45.85 50.428 45.6365 50.9171 45.2094 51.3424C44.825 51.7253 44.3552 51.9167 43.8 51.9167H19.2C18.6448 51.9167 18.1536 51.7253 17.7266 51.3424C17.3422 50.9171 17.15 50.428 17.15 49.875V17.2083ZM21.25 23.3333V45.7917H25.35V23.3333H21.25ZM29.45 23.3333V45.7917H33.55V23.3333H29.45ZM37.65 23.3333V45.7917H41.75V23.3333H37.65Z" fill="#464646"/>
</svg>
