<svg width="64" height="64" viewBox="0 0 64 64" fill="none" xmlns="http://www.w3.org/2000/svg">
<path d="M52.0106 17.0392L42.2106 7.23918C42.1348 7.16335 42.0448 7.10319 41.9457 7.06216C41.8466 7.02112 41.7404 7 41.6331 7H18.7665C17.2508 7.0017 15.7978 7.60454 14.7261 8.67625C13.6543 9.74797 13.0515 11.201 13.0498 12.7167V50.2833C13.0515 51.799 13.6543 53.252 14.7261 54.3237C15.7978 55.3955 17.2508 55.9983 18.7665 56H46.5331C48.0488 55.9983 49.5018 55.3955 50.5736 54.3237C51.6453 53.252 52.2481 51.799 52.2498 50.2833V17.6167C52.2498 17.5094 52.2287 17.4032 52.1877 17.3041C52.1466 17.2051 52.0865 17.115 52.0106 17.0392V17.0392ZM42.4498 9.7882L49.4616 16.8H46.5331C45.4505 16.7988 44.4126 16.3682 43.6471 15.6027C42.8816 14.8372 42.451 13.7993 42.4498 12.7167V9.7882ZM18.7665 8.63333H40.8165V12.7167C40.8182 14.2323 41.421 15.6854 42.4927 16.7571C43.5644 17.8288 45.0175 18.4316 46.5331 18.4333H50.6165V41.3H14.6831V12.7167C14.6844 11.6341 15.115 10.5962 15.8805 9.83066C16.646 9.06515 17.6839 8.63455 18.7665 8.63333V8.63333ZM46.5331 54.3667H18.7665C17.6839 54.3655 16.646 53.9349 15.8805 53.1693C15.115 52.4038 14.6844 51.3659 14.6831 50.2833V42.9333H50.6165V50.2833C50.6153 51.3659 50.1847 52.4038 49.4191 53.1693C48.6536 53.9349 47.6157 54.3655 46.5331 54.3667V54.3667Z" fill="#464646"/>
<path d="M25.2996 44.5669H23.6663C23.4497 44.5669 23.242 44.6529 23.0888 44.8061C22.9357 44.9592 22.8496 45.167 22.8496 45.3836V51.9169C22.8496 52.1335 22.9357 52.3412 23.0888 52.4944C23.242 52.6475 23.4497 52.7336 23.6663 52.7336C23.8829 52.7336 24.0906 52.6475 24.2437 52.4944C24.3969 52.3412 24.4829 52.1335 24.4829 51.9169V49.4669H25.2996C25.9494 49.4669 26.5726 49.2088 27.032 48.7493C27.4915 48.2898 27.7496 47.6667 27.7496 47.0169C27.7496 46.3671 27.4915 45.7439 27.032 45.2845C26.5726 44.825 25.9494 44.5669 25.2996 44.5669ZM25.2996 47.8336H24.4829V46.2002H25.2996C25.5162 46.2002 25.7239 46.2863 25.8771 46.4394C26.0302 46.5926 26.1163 46.8003 26.1163 47.0169C26.1163 47.2335 26.0302 47.4412 25.8771 47.5944C25.7239 47.7475 25.5162 47.8336 25.2996 47.8336Z" fill="#464646"/>
<path d="M41.6327 47.8336H39.9993C39.7828 47.8336 39.575 47.9196 39.4219 48.0728C39.2687 48.2259 39.1827 48.4336 39.1827 48.6502C39.1827 48.8668 39.2687 49.0745 39.4219 49.2277C39.575 49.3809 39.7828 49.4669 39.9993 49.4669H40.7189C40.489 50.4078 39.8782 51.1002 39.1827 51.1002C38.2973 51.1002 37.5493 49.9782 37.5493 48.6502C37.5493 47.3222 38.2973 46.2002 39.1827 46.2002C39.3449 46.201 39.5049 46.2379 39.6511 46.3081C39.8471 46.4005 40.0717 46.4112 40.2755 46.338C40.3764 46.3017 40.4692 46.2459 40.5486 46.1738C40.628 46.1017 40.6923 46.0146 40.7381 45.9176C40.7838 45.8206 40.81 45.7155 40.8151 45.6084C40.8202 45.5013 40.8042 45.3942 40.7679 45.2933C40.7317 45.1923 40.6759 45.0995 40.6037 45.0202C40.5316 44.9408 40.4446 44.8764 40.3476 44.8307C39.9837 44.6574 39.5857 44.5673 39.1827 44.5669C37.3814 44.5669 35.916 46.3987 35.916 48.6502C35.916 50.9018 37.3814 52.7336 39.1827 52.7336C40.9839 52.7336 42.4493 50.9018 42.4493 48.6502C42.4493 48.4336 42.3633 48.2259 42.2102 48.0728C42.057 47.9196 41.8493 47.8336 41.6327 47.8336Z" fill="#464646"/>
<path d="M33.4661 44.5669C33.2496 44.5669 33.0418 44.6529 32.8887 44.8061C32.7355 44.9592 32.6495 45.167 32.6495 45.3836V48.4574L30.9299 45.0183C30.8476 44.8538 30.7122 44.7219 30.5455 44.6439C30.3789 44.5659 30.1909 44.5465 30.0118 44.5888C29.8328 44.6311 29.6733 44.7325 29.5591 44.8768C29.4449 45.021 29.3828 45.1996 29.3828 45.3836V51.9169C29.3828 52.1335 29.4689 52.3412 29.622 52.4944C29.7752 52.6475 29.9829 52.7336 30.1995 52.7336C30.4161 52.7336 30.6238 52.6475 30.777 52.4944C30.9301 52.3412 31.0161 52.1335 31.0161 51.9169V48.8431L32.7357 52.2821C32.818 52.4467 32.9535 52.5786 33.1201 52.6566C33.2867 52.7345 33.4748 52.7539 33.6538 52.7117C33.8328 52.6694 33.9924 52.5679 34.1065 52.4237C34.2207 52.2794 34.2828 52.1009 34.2828 51.9169V45.3836C34.2828 45.167 34.1968 44.9592 34.0436 44.8061C33.8905 44.6529 33.6827 44.5669 33.4661 44.5669Z" fill="#464646"/>
<path d="M24.4827 36.3998H27.7493C27.9659 36.3998 28.1737 36.3137 28.3268 36.1606C28.48 36.0074 28.566 35.7997 28.566 35.5831V33.1331H30.1993V35.5831C30.1993 35.7997 30.2854 36.0074 30.4385 36.1606C30.5917 36.3137 30.7994 36.3998 31.016 36.3998H34.2827C34.4993 36.3998 34.707 36.3137 34.8602 36.1606C35.0133 36.0074 35.0993 35.7997 35.0993 35.5831V33.1331H36.7327V35.5831C36.7327 35.7997 36.8187 36.0074 36.9719 36.1606C37.125 36.3137 37.3328 36.3998 37.5493 36.3998H40.816C41.0326 36.3998 41.2403 36.3137 41.3935 36.1606C41.5466 36.0074 41.6327 35.7997 41.6327 35.5831V32.3164C41.6327 32.0998 41.5466 31.8921 41.3935 31.739C41.2403 31.5858 41.0326 31.4998 40.816 31.4998H38.366V29.8664H40.816C41.0326 29.8664 41.2403 29.7804 41.3935 29.6272C41.5466 29.4741 41.6327 29.2664 41.6327 29.0498V25.7831C41.6327 25.5665 41.5466 25.3588 41.3935 25.2056C41.2403 25.0525 41.0326 24.9664 40.816 24.9664H38.366V23.3331H40.816C41.0326 23.3331 41.2403 23.2471 41.3935 23.0939C41.5466 22.9408 41.6327 22.733 41.6327 22.5164V19.2498C41.6327 19.0332 41.5466 18.8255 41.3935 18.6723C41.2403 18.5191 41.0326 18.4331 40.816 18.4331H37.5493C37.3328 18.4331 37.125 18.5191 36.9719 18.6723C36.8187 18.8255 36.7327 19.0332 36.7327 19.2498V21.6998H35.0993V19.2498C35.0993 19.0332 35.0133 18.8255 34.8602 18.6723C34.707 18.5191 34.4993 18.4331 34.2827 18.4331H31.016C30.7994 18.4331 30.5917 18.5191 30.4385 18.6723C30.2854 18.8255 30.1993 19.0332 30.1993 19.2498V21.6998H28.566V19.2498C28.566 19.0332 28.48 18.8255 28.3268 18.6723C28.1737 18.5191 27.9659 18.4331 27.7493 18.4331H24.4827C24.2661 18.4331 24.0584 18.5191 23.9052 18.6723C23.7521 18.8255 23.666 19.0332 23.666 19.2498V22.5164C23.666 22.733 23.7521 22.9408 23.9052 23.0939C24.0584 23.2471 24.2661 23.3331 24.4827 23.3331H26.9327V24.9664H24.4827C24.2661 24.9664 24.0584 25.0525 23.9052 25.2056C23.7521 25.3588 23.666 25.5665 23.666 25.7831V29.0498C23.666 29.2664 23.7521 29.4741 23.9052 29.6272C24.0584 29.7804 24.2661 29.8664 24.4827 29.8664H26.9327V31.4998H24.4827C24.2661 31.4998 24.0584 31.5858 23.9052 31.739C23.7521 31.8921 23.666 32.0998 23.666 32.3164V35.5831C23.666 35.7997 23.7521 36.0074 23.9052 36.1606C24.0584 36.3137 24.2661 36.3998 24.4827 36.3998ZM30.1993 26.5998V28.2331H28.566V26.5998H30.1993ZM36.7327 28.2331H35.0993V26.5998H36.7327V28.2331ZM33.466 28.2331H31.8327V26.5998H33.466V28.2331ZM31.8327 29.8664H33.466V31.4998H31.8327V29.8664ZM33.466 24.9664H31.8327V23.3331H33.466V24.9664ZM28.566 29.8664H30.1993V31.4998H28.566V29.8664ZM33.466 34.7664H31.8327V33.1331H33.466V34.7664ZM35.0993 29.8664H36.7327V31.4998H35.0993V29.8664ZM39.9993 34.7664H38.366V33.1331H39.9993V34.7664ZM39.9993 28.2331H38.366V26.5998H39.9993V28.2331ZM38.366 20.0664H39.9993V21.6998H38.366V20.0664ZM36.7327 24.9664H35.0993V23.3331H36.7327V24.9664ZM31.8327 20.0664H33.466V21.6998H31.8327V20.0664ZM30.1993 24.9664H28.566V23.3331H30.1993V24.9664ZM25.2993 20.0664H26.9327V21.6998H25.2993V20.0664ZM25.2993 26.5998H26.9327V28.2331H25.2993V26.5998ZM25.2993 33.1331H26.9327V34.7664H25.2993V33.1331Z" fill="#464646"/>
</svg>
