<svg width="64" height="64" viewBox="0 0 64 64" fill="none" xmlns="http://www.w3.org/2000/svg">
<path d="M50.6484 25.5271H49.4718V19.8499C49.4718 19.8145 49.4662 19.7788 49.4615 19.743C49.4596 19.5176 49.3879 19.2961 49.2336 19.1207L39.7861 8.32862C39.7833 8.32587 39.7805 8.32489 39.7786 8.32186C39.7223 8.25897 39.6566 8.20666 39.5872 8.16138C39.5667 8.14759 39.5459 8.13602 39.5244 8.1241C39.4643 8.09127 39.4005 8.06405 39.3348 8.04439C39.317 8.03941 39.301 8.03212 39.2832 8.02749C39.2119 8.01059 39.1378 8 39.0627 8H15.8444C14.7842 8 13.9228 8.8623 13.9228 9.92165V25.5266H12.7465C11.2298 25.5266 10 26.7559 10 28.2731V42.5554C10 44.0716 11.2298 45.3017 12.7465 45.3017H13.9229V55.0783C13.9229 56.1376 14.7843 57 15.8445 57H47.5503C48.6096 57 49.4719 56.1377 49.4719 55.0783V45.3017H50.6485C52.1647 45.3017 53.3948 44.0716 53.3948 42.5554V28.2736C53.3947 26.7564 52.1647 25.5271 50.6484 25.5271ZM15.8444 9.92201H38.1019V19.7534C38.1019 20.2842 38.5326 20.7142 39.0627 20.7142H47.5502V25.5277H15.8444V9.92201ZM37.3438 28.0761L32.5109 42.4245H28.7219L24.1235 28.0761H27.679L29.4242 34.1429C29.9142 35.8459 30.361 37.4849 30.7017 39.2733H30.7654C31.1267 37.5488 31.574 35.8459 32.0636 34.2067L33.8948 28.0756H37.3439V28.0761H37.3438ZM13.2875 41.7644L13.9471 39.0819C14.8199 39.5286 16.1612 39.9761 17.5446 39.9761C19.0348 39.9761 19.8227 39.3591 19.8227 38.4224C19.8227 37.5281 19.141 37.0172 17.4163 36.3999C15.0321 35.5701 13.4786 34.2499 13.4786 32.1644C13.4786 29.7158 15.5221 27.8427 18.9065 27.8427C20.5245 27.8427 21.7168 28.1828 22.568 28.5661L21.8451 31.1848C21.27 30.9076 20.2487 30.5037 18.8431 30.5037C17.4383 30.5037 16.7566 31.1427 16.7566 31.8872C16.7566 32.8031 17.5652 33.2076 19.4181 33.9094C21.9506 34.8467 23.143 36.1659 23.143 38.1879C23.143 40.5936 21.2915 42.6371 17.3525 42.6371C15.7137 42.637 14.0952 42.212 13.2875 41.7644ZM47.5503 54.5582H15.8444V45.3017H47.5502V54.5582H47.5503ZM50.6915 41.7644C49.6914 42.1045 47.797 42.5742 45.9027 42.5742C43.2839 42.5742 41.3897 41.9136 40.0695 40.6367C38.7494 39.4024 38.0259 37.5282 38.0467 35.4214C38.0692 30.6527 41.5388 27.9277 46.2433 27.9277C48.0946 27.9277 49.5217 28.29 50.2234 28.6301L49.5423 31.228C48.7541 30.8874 47.7765 30.6097 46.2002 30.6097C43.4962 30.6097 41.4535 32.1428 41.4535 35.2511C41.4535 38.2104 43.3048 39.9555 45.9665 39.9555C46.7116 39.9555 47.3074 39.8701 47.5625 39.7425V36.7405H45.3496V34.2077H50.6916V41.7644H50.6915Z" fill="#464646"/>
</svg>
