<svg width="64" height="64" viewBox="0 0 64 64" fill="none" xmlns="http://www.w3.org/2000/svg">
<path d="M30.5 7C26.0764 7 21.9505 8.12717 18.1224 10.3815C14.4219 12.5082 11.5082 15.4219 9.38151 19.1224C7.12717 22.9505 6 27.0764 6 31.5C6 35.9236 7.12717 40.0495 9.38151 43.8776C11.5082 47.5781 14.4219 50.513 18.1224 52.6823C21.9505 54.8941 26.0764 56 30.5 56C34.9236 56 39.0495 54.8941 42.8776 52.6823C46.5781 50.513 49.513 47.5781 51.6823 43.8776C53.8941 40.0495 55 35.9236 55 31.5C55 27.0764 53.8941 22.9505 51.6823 19.1224C49.513 15.4219 46.5781 12.5082 42.8776 10.3815C39.0495 8.12717 34.9236 7 30.5 7ZM30.5 11.0833C34.2005 11.0833 37.6458 12.0191 40.8359 13.8906C43.8984 15.6771 46.3229 18.1016 48.1094 21.1641C49.9809 24.3542 50.9167 27.7995 50.9167 31.5C50.9167 35.2005 49.9809 38.6458 48.1094 41.8359C46.3229 44.8984 43.8984 47.3229 40.8359 49.1094C37.6458 50.9809 34.2005 51.9167 30.5 51.9167C26.7995 51.9167 23.3542 50.9809 20.1641 49.1094C17.1016 47.3229 14.6771 44.8984 12.8906 41.8359C11.0191 38.6458 10.0833 35.2005 10.0833 31.5C10.0833 27.7995 11.0191 24.3542 12.8906 21.1641C14.6771 18.1016 17.1016 15.6771 20.1641 13.8906C23.3542 12.0191 26.7995 11.0833 30.5 11.0833ZM30.5 25.375C28.7986 25.375 27.3524 25.9705 26.1615 27.1615C24.9705 28.3524 24.375 29.7986 24.375 31.5C24.375 33.2014 24.9705 34.6476 26.1615 35.8385C27.3524 37.0295 28.7986 37.625 30.5 37.625C32.2014 37.625 33.6476 37.0295 34.8385 35.8385C36.0295 34.6476 36.625 33.2014 36.625 31.5C36.625 29.7986 36.0295 28.3524 34.8385 27.1615C33.6476 25.9705 32.2014 25.375 30.5 25.375Z" fill="#464646"/>
</svg>
