<svg width="64" height="64" viewBox="0 0 64 64" fill="none" xmlns="http://www.w3.org/2000/svg">
<path d="M41.3854 7.23918C41.3096 7.16335 41.2196 7.10319 41.1205 7.06216C41.0214 7.02112 40.9152 7 40.8079 7H17.9413C16.4257 7.00173 14.9726 7.60457 13.9009 8.67628C12.8292 9.74799 12.2263 11.201 12.2246 12.7167V50.2833C12.2263 51.799 12.8292 53.252 13.9009 54.3237C14.9726 55.3954 16.4257 55.9983 17.9413 56H45.7079C47.2236 55.9983 48.6766 55.3954 49.7483 54.3237C50.82 53.252 51.4229 51.799 51.4246 50.2833V17.6167C51.4246 17.5094 51.4035 17.4032 51.3625 17.3041C51.3214 17.2051 51.2613 17.115 51.1854 17.0392L41.3854 7.23918ZM41.6246 9.7882L48.6364 16.8H45.7079C44.6253 16.7988 43.5874 16.3682 42.8219 15.6027C42.0564 14.8372 41.6258 13.7993 41.6246 12.7167V9.7882ZM17.9413 8.63333H39.9913V12.7167C39.993 14.2323 40.5958 15.6853 41.6676 16.7571C42.7393 17.8288 44.1923 18.4316 45.7079 18.4333H49.7913V41.3H13.8579V12.7167C13.8592 11.6341 14.2898 10.5962 15.0553 9.83066C15.8208 9.06515 16.8587 8.63455 17.9413 8.63333V8.63333ZM45.7079 54.3667H17.9413C16.8587 54.3655 15.8208 53.9349 15.0553 53.1693C14.2898 52.4038 13.8592 51.3659 13.8579 50.2833V42.9333H49.7913V50.2833C49.7901 51.3659 49.3595 52.4038 48.594 53.1693C47.8284 53.9349 46.7905 54.3655 45.7079 54.3667V54.3667Z" fill="#464646"/>
<path d="M24.4744 46.2H26.1077C26.3243 46.2 26.5321 46.1139 26.6852 45.9608C26.8384 45.8076 26.9244 45.5999 26.9244 45.3833C26.9244 45.1667 26.8384 44.959 26.6852 44.8058C26.5321 44.6527 26.3243 44.5667 26.1077 44.5667H24.4744C23.8246 44.5667 23.2015 44.8248 22.742 45.2842C22.2825 45.7437 22.0244 46.3669 22.0244 47.0167C22.0244 47.6664 22.2825 48.2896 22.742 48.7491C23.2015 49.2085 23.8246 49.4667 24.4744 49.4667C24.691 49.4667 24.8987 49.5527 25.0519 49.7058C25.205 49.859 25.2911 50.0667 25.2911 50.2833C25.2911 50.4999 25.205 50.7076 25.0519 50.8608C24.8987 51.0139 24.691 51.1 24.4744 51.1H22.8411C22.6245 51.1 22.4168 51.186 22.2636 51.3392C22.1105 51.4923 22.0244 51.7001 22.0244 51.9167C22.0244 52.1332 22.1105 52.341 22.2636 52.4941C22.4168 52.6473 22.6245 52.7333 22.8411 52.7333H24.4744C25.1242 52.7333 25.7474 52.4752 26.2068 52.0157C26.6663 51.5563 26.9244 50.9331 26.9244 50.2833C26.9244 49.6335 26.6663 49.0104 26.2068 48.5509C25.7474 48.0914 25.1242 47.8333 24.4744 47.8333C24.2578 47.8333 24.0501 47.7473 23.8969 47.5941C23.7438 47.441 23.6577 47.2332 23.6577 47.0167C23.6577 46.8001 23.7438 46.5923 23.8969 46.4392C24.0501 46.286 24.2578 46.2 24.4744 46.2Z" fill="#464646"/>
<path d="M32.8385 44.5911C32.6284 44.5386 32.406 44.5717 32.2203 44.6832C32.0346 44.7946 31.9008 44.9752 31.8483 45.1853L31.0071 48.5495L30.166 45.1853C30.1406 45.0806 30.0948 44.982 30.0311 44.8951C29.9675 44.8082 29.8872 44.7347 29.795 44.6789C29.7028 44.6232 29.6005 44.5862 29.494 44.5701C29.3875 44.5541 29.2788 44.5593 29.1743 44.5854C29.0698 44.6115 28.9714 44.6581 28.885 44.7224C28.7985 44.7867 28.7257 44.8674 28.6706 44.96C28.6155 45.0526 28.5792 45.1552 28.5639 45.2618C28.5486 45.3685 28.5546 45.4771 28.5815 45.5814L30.2148 52.1148C30.259 52.2914 30.361 52.4483 30.5045 52.5603C30.6481 52.6724 30.825 52.7333 31.0071 52.7333C31.1892 52.7333 31.3661 52.6724 31.5096 52.5603C31.6532 52.4483 31.7552 52.2914 31.7994 52.1148L33.4327 45.5814C33.4852 45.3713 33.4521 45.1489 33.3407 44.9632C33.2292 44.7775 33.0486 44.6436 32.8385 44.5911V44.5911Z" fill="#464646"/>
<path d="M40.8075 47.8333H39.1742C38.9576 47.8333 38.7498 47.9194 38.5967 48.0725C38.4435 48.2257 38.3575 48.4334 38.3575 48.65C38.3575 48.8666 38.4435 49.0743 38.5967 49.2275C38.7498 49.3806 38.9576 49.4667 39.1742 49.4667H39.8937C39.6638 50.4076 39.0531 51.1 38.3575 51.1C37.4721 51.1 36.7242 49.978 36.7242 48.65C36.7242 47.322 37.4721 46.2 38.3575 46.2C38.5197 46.2008 38.6797 46.2376 38.8259 46.3079C39.0219 46.4002 39.2465 46.411 39.4503 46.3377C39.5512 46.3015 39.644 46.2457 39.7234 46.1736C39.8028 46.1014 39.8672 46.0144 39.9129 45.9174C39.9586 45.8204 39.9848 45.7153 39.9899 45.6082C39.995 45.501 39.979 45.394 39.9427 45.293C39.9065 45.1921 39.8507 45.0993 39.7786 45.0199C39.7064 44.9405 39.6194 44.8762 39.5224 44.8304C39.1585 44.6571 38.7605 44.567 38.3575 44.5667C36.5562 44.5667 35.0908 46.3984 35.0908 48.65C35.0908 50.9015 36.5562 52.7333 38.3575 52.7333C40.1587 52.7333 41.6242 50.9015 41.6242 48.65C41.6242 48.4334 41.5381 48.2257 41.385 48.0725C41.2318 47.9194 41.0241 47.8333 40.8075 47.8333Z" fill="#464646"/>
<path d="M23.6575 36.4H26.9242C27.1407 36.4 27.3485 36.314 27.5016 36.1608C27.6548 36.0077 27.7408 35.7999 27.7408 35.5833V34.7667H35.9075V35.5833C35.9075 35.7999 35.9935 36.0077 36.1467 36.1608C36.2998 36.314 36.5076 36.4 36.7242 36.4H39.9908C40.2074 36.4 40.4151 36.314 40.5683 36.1608C40.7214 36.0077 40.8075 35.7999 40.8075 35.5833V32.3167C40.8075 32.1001 40.7214 31.8924 40.5683 31.7392C40.4151 31.5861 40.2074 31.5 39.9908 31.5H39.1742V23.3333H39.9908C40.2074 23.3333 40.4151 23.2473 40.5683 23.0942C40.7214 22.941 40.8075 22.7333 40.8075 22.5167V19.25C40.8075 19.0334 40.7214 18.8257 40.5683 18.6725C40.4151 18.5194 40.2074 18.4333 39.9908 18.4333H36.7242C36.5076 18.4333 36.2998 18.5194 36.1467 18.6725C35.9935 18.8257 35.9075 19.0334 35.9075 19.25V20.0667H27.7408V19.25C27.7408 19.0334 27.6548 18.8257 27.5016 18.6725C27.3485 18.5194 27.1407 18.4333 26.9242 18.4333H23.6575C23.4409 18.4333 23.2332 18.5194 23.08 18.6725C22.9269 18.8257 22.8408 19.0334 22.8408 19.25V22.5167C22.8408 22.7333 22.9269 22.941 23.08 23.0942C23.2332 23.2473 23.4409 23.3333 23.6575 23.3333H24.4742V31.5H23.6575C23.4409 31.5 23.2332 31.5861 23.08 31.7392C22.9269 31.8924 22.8408 32.1001 22.8408 32.3167V35.5833C22.8408 35.7999 22.9269 36.0077 23.08 36.1608C23.2332 36.314 23.4409 36.4 23.6575 36.4ZM39.1742 34.7667H37.5408V33.1333H39.1742V34.7667ZM37.5408 20.0667H39.1742V21.7H37.5408V20.0667ZM24.4742 20.0667H26.1075V21.7H24.4742V20.0667ZM26.1075 23.3333H26.9242C27.1407 23.3333 27.3485 23.2473 27.5016 23.0942C27.6548 22.941 27.7408 22.7333 27.7408 22.5167V21.7H35.9075V22.5167C35.9075 22.7333 35.9935 22.941 36.1467 23.0942C36.2998 23.2473 36.5076 23.3333 36.7242 23.3333H37.5408V31.5H36.7242C36.5076 31.5 36.2998 31.5861 36.1467 31.7392C35.9935 31.8924 35.9075 32.1001 35.9075 32.3167V33.1333H27.7408V32.3167C27.7408 32.1001 27.6548 31.8924 27.5016 31.7392C27.3485 31.5861 27.1407 31.5 26.9242 31.5H26.1075V23.3333ZM24.4742 33.1333H26.1075V34.7667H24.4742V33.1333Z" fill="#464646"/>
</svg>
