<svg width="64" height="64" viewBox="0 0 64 64" fill="none" xmlns="http://www.w3.org/2000/svg">
<path d="M41.2604 7.23918C41.1846 7.16335 41.0946 7.10319 40.9955 7.06216C40.8964 7.02112 40.7902 7 40.6829 7H17.8163C16.3006 7.0017 14.8476 7.60454 13.7759 8.67625C12.7041 9.74797 12.1013 11.201 12.0996 12.7167V50.2833C12.1013 51.799 12.7041 53.252 13.7759 54.3237C14.8476 55.3955 16.3006 55.9983 17.8163 56H45.5829C47.0986 55.9983 48.5516 55.3955 49.6234 54.3237C50.6951 53.252 51.2979 51.799 51.2996 50.2833V17.6167C51.2996 17.5094 51.2785 17.4032 51.2375 17.3041C51.1964 17.2051 51.1363 17.115 51.0604 17.0392L41.2604 7.23918ZM41.4996 9.7882L48.5114 16.8H45.5829C44.5003 16.7988 43.4624 16.3682 42.6969 15.6027C41.9314 14.8372 41.5008 13.7993 41.4996 12.7167V9.7882ZM17.8163 8.63333H39.8663V12.7167C39.868 14.2323 40.4708 15.6854 41.5425 16.7571C42.6142 17.8288 44.0673 18.4316 45.5829 18.4333H49.6663V41.3H13.7329V12.7167C13.7342 11.6341 14.1648 10.5962 14.9303 9.83066C15.6958 9.06515 16.7337 8.63455 17.8163 8.63333V8.63333ZM45.5829 54.3667H17.8163C16.7337 54.3655 15.6958 53.9349 14.9303 53.1693C14.1648 52.4038 13.7342 51.3659 13.7329 50.2833V42.9333H49.6663V50.2833C49.6651 51.3659 49.2345 52.4038 48.469 53.1693C47.7034 53.9349 46.6655 54.3655 45.5829 54.3667V54.3667Z" fill="#464646"/>
<path d="M30.8836 44.5667H29.2503C29.0337 44.5667 28.8259 44.6527 28.6728 44.8058C28.5196 44.959 28.4336 45.1667 28.4336 45.3833V51.9167C28.4336 52.1332 28.5196 52.341 28.6728 52.4941C28.8259 52.6473 29.0337 52.7333 29.2503 52.7333C29.4669 52.7333 29.6746 52.6473 29.8277 52.4941C29.9809 52.341 30.0669 52.1332 30.0669 51.9167V49.4667H30.8836C31.5334 49.4667 32.1565 49.2085 32.616 48.7491C33.0755 48.2896 33.3336 47.6664 33.3336 47.0167C33.3336 46.3669 33.0755 45.7437 32.616 45.2842C32.1565 44.8248 31.5334 44.5667 30.8836 44.5667V44.5667ZM30.8836 47.8333H30.0669V46.2H30.8836C31.1002 46.2 31.3079 46.286 31.4611 46.4392C31.6142 46.5923 31.7003 46.8001 31.7003 47.0167C31.7003 47.2332 31.6142 47.441 31.4611 47.5941C31.3079 47.7473 31.1002 47.8333 30.8836 47.8333Z" fill="#464646"/>
<path d="M25.9827 44.5667C25.7662 44.5667 25.5584 44.6527 25.4053 44.8058C25.2521 44.959 25.1661 45.1667 25.1661 45.3833V50.2833C25.1661 50.4999 25.08 50.7076 24.9269 50.8608C24.7737 51.0139 24.566 51.1 24.3494 51.1C24.1328 51.1 23.9251 51.0139 23.7719 50.8608C23.6188 50.7076 23.5327 50.4999 23.5327 50.2833C23.5327 50.0667 23.4467 49.859 23.2936 49.7058C23.1404 49.5527 22.9327 49.4667 22.7161 49.4667C22.4995 49.4667 22.2918 49.5527 22.1386 49.7058C21.9855 49.859 21.8994 50.0667 21.8994 50.2833C21.8994 50.9331 22.1575 51.5563 22.617 52.0157C23.0765 52.4752 23.6996 52.7333 24.3494 52.7333C24.9992 52.7333 25.6224 52.4752 26.0818 52.0157C26.5413 51.5563 26.7994 50.9331 26.7994 50.2833V45.3833C26.7994 45.1667 26.7134 44.959 26.5602 44.8058C26.4071 44.6527 26.1993 44.5667 25.9827 44.5667Z" fill="#464646"/>
<path d="M40.6835 47.8333H39.0501C38.8335 47.8333 38.6258 47.9194 38.4727 48.0725C38.3195 48.2257 38.2335 48.4334 38.2335 48.65C38.2335 48.8666 38.3195 49.0743 38.4727 49.2275C38.6258 49.3806 38.8335 49.4667 39.0501 49.4667H39.7697C39.5398 50.4076 38.929 51.1 38.2335 51.1C37.3481 51.1 36.6001 49.978 36.6001 48.65C36.6001 47.322 37.3481 46.2 38.2335 46.2C38.3957 46.2008 38.5557 46.2376 38.7019 46.3079C38.8978 46.4002 39.1224 46.411 39.3263 46.3377C39.4272 46.3015 39.52 46.2457 39.5994 46.1736C39.6787 46.1014 39.7431 46.0144 39.7889 45.9174C39.8346 45.8204 39.8608 45.7153 39.8659 45.6082C39.871 45.501 39.855 45.394 39.8187 45.293C39.7824 45.1921 39.7267 45.0993 39.6545 45.0199C39.5824 44.9405 39.4953 44.8762 39.3983 44.8304C39.0344 44.6571 38.6365 44.567 38.2335 44.5667C36.4322 44.5667 34.9668 46.3984 34.9668 48.65C34.9668 50.9015 36.4322 52.7333 38.2335 52.7333C40.0347 52.7333 41.5001 50.9015 41.5001 48.65C41.5001 48.4334 41.4141 48.2257 41.2609 48.0725C41.1078 47.9194 40.9001 47.8333 40.6835 47.8333Z" fill="#464646"/>
<path d="M21.0823 36.4H42.3156C42.5322 36.4 42.7399 36.314 42.8931 36.1608C43.0463 36.0077 43.1323 35.7999 43.1323 35.5833V19.25C43.1323 19.0334 43.0463 18.8257 42.8931 18.6725C42.7399 18.5194 42.5322 18.4333 42.3156 18.4333H21.0823C20.8657 18.4333 20.658 18.5194 20.5048 18.6725C20.3517 18.8257 20.2656 19.0334 20.2656 19.25V35.5833C20.2656 35.7999 20.3517 36.0077 20.5048 36.1608C20.658 36.314 20.8657 36.4 21.0823 36.4ZM22.7815 34.7667L27.6286 28.7078L31.0716 32.8396C31.1767 32.9657 31.3175 33.0573 31.4755 33.1022C31.6335 33.1471 31.8014 33.1434 31.9572 33.0914L36.4183 31.6043L40.108 34.7667H22.7815ZM41.499 20.0667V33.8077L37.1304 30.0633C37.0233 29.9715 36.8943 29.909 36.7559 29.8819C36.6175 29.8548 36.4745 29.864 36.3407 29.9086L31.9695 31.3657L28.2434 26.8938C28.1667 26.8018 28.0707 26.7278 27.9622 26.677C27.8538 26.6262 27.7354 26.5999 27.6156 26.6H27.6075C27.4864 26.6012 27.3671 26.6293 27.2582 26.6823C27.1493 26.7352 27.0536 26.8117 26.9779 26.9063L21.899 33.2552V20.0667H41.499Z" fill="#464646"/>
<path d="M34.9656 28.2335C35.4502 28.2335 35.9239 28.0898 36.3268 27.8206C36.7297 27.5514 37.0437 27.1687 37.2291 26.7211C37.4146 26.2734 37.4631 25.7808 37.3685 25.3055C37.274 24.8303 37.0407 24.3937 36.698 24.0511C36.3554 23.7084 35.9188 23.4751 35.4436 23.3806C34.9683 23.286 34.4757 23.3346 34.0281 23.52C33.5804 23.7054 33.1977 24.0195 32.9285 24.4224C32.6593 24.8253 32.5156 25.2989 32.5156 25.7835C32.5164 26.4331 32.7747 27.0558 33.234 27.5151C33.6933 27.9744 34.3161 28.2328 34.9656 28.2335V28.2335ZM34.9656 24.9668C35.1271 24.9668 35.285 25.0147 35.4193 25.1045C35.5536 25.1942 35.6583 25.3217 35.7201 25.471C35.7819 25.6202 35.7981 25.7844 35.7666 25.9428C35.7351 26.1012 35.6573 26.2468 35.5431 26.361C35.4289 26.4752 35.2834 26.553 35.1249 26.5845C34.9665 26.616 34.8023 26.5998 34.6531 26.538C34.5039 26.4762 34.3763 26.3715 34.2866 26.2372C34.1969 26.1029 34.149 25.945 34.149 25.7835C34.1492 25.567 34.2353 25.3594 34.3884 25.2063C34.5415 25.0532 34.7491 24.9671 34.9656 24.9668Z" fill="#464646"/>
</svg>
