<svg width="64" height="64" viewBox="0 0 64 64" fill="none" xmlns="http://www.w3.org/2000/svg">
<path d="M20.2522 31.6161C20.2522 30.3709 19.3883 29.6277 17.8603 29.6277C17.2384 29.6277 16.8171 29.6877 16.5967 29.7482V33.745C16.8575 33.8051 17.1784 33.8247 17.6215 33.8247C19.2471 33.8258 20.2522 33.0015 20.2522 31.6161Z" fill="#464646"/>
<path d="M50.6484 24.5271H49.4718V18.8499C49.4718 18.8145 49.4662 18.7788 49.4615 18.743C49.4596 18.5176 49.3879 18.2961 49.2336 18.1207L39.7861 7.32862C39.7833 7.32587 39.7805 7.32489 39.7786 7.32186C39.7223 7.25897 39.6566 7.20666 39.5872 7.16138C39.5667 7.14759 39.5459 7.13602 39.5244 7.1241C39.4643 7.09127 39.4005 7.06405 39.3348 7.04439C39.317 7.03941 39.301 7.03212 39.2832 7.02749C39.2119 7.01059 39.1378 7 39.0627 7H15.8444C14.7842 7 13.9228 7.8623 13.9228 8.92165V24.5266H12.7465C11.2298 24.5266 10 25.7559 10 27.2731V41.5554C10 43.0716 11.2298 44.3017 12.7465 44.3017H13.9229V54.0783C13.9229 55.1376 14.7843 56 15.8445 56H47.5503C48.6096 56 49.4719 55.1377 49.4719 54.0783V44.3017H50.6485C52.1647 44.3017 53.3948 43.0716 53.3948 41.5554V27.2736C53.3947 25.7564 52.1647 24.5271 50.6484 24.5271ZM15.8444 8.92201H38.1019V18.7534C38.1019 19.2842 38.5326 19.7142 39.0627 19.7142H47.5502V24.5277H15.8444V8.92201ZM28.0449 36.8786V40.9557H25.2337V27.4188H28.8085L31.6206 32.3792C32.4235 33.8053 33.2276 35.4913 33.8291 37.0189H33.8891C33.6884 35.2305 33.6282 33.4032 33.6282 31.3751V27.4188H36.4406V40.9557H33.2276L30.335 35.7334C29.53 34.2876 28.6473 32.5404 27.983 30.9538L27.9238 30.9736C28.006 32.7614 28.0449 34.6694 28.0449 36.8786ZM13.5631 40.9557V27.5999C14.5072 27.4394 15.833 27.3189 17.7003 27.3189C19.5876 27.3189 20.9343 27.6801 21.8378 28.4035C22.7006 29.0861 23.2839 30.2106 23.2839 31.5366C23.2839 32.8619 22.8427 33.9874 22.0385 34.7502C20.9943 35.7343 19.4477 36.1763 17.6402 36.1763C17.2379 36.1763 16.8757 36.1557 16.5961 36.1162V40.9567H13.5631V40.9557ZM47.5503 53.5582H15.8444V44.3017H47.5502V53.5582H47.5503ZM50.4016 40.3327C49.4577 40.6536 47.6693 41.0965 45.8819 41.0965C43.4125 41.0965 41.6232 40.4735 40.3791 39.2688C39.134 38.1034 38.45 36.3357 38.4707 34.3476C38.4904 29.8489 41.7649 27.2785 46.2029 27.2785C47.9505 27.2785 49.2972 27.6191 49.9588 27.9409L49.317 30.3911C48.5725 30.0694 47.6488 29.8084 46.1626 29.8084C43.6133 29.8084 41.6842 31.2546 41.6842 34.1871C41.6842 36.9789 43.4322 38.6256 45.943 38.6256C46.6453 38.6256 47.2078 38.5454 47.4494 38.4248V35.5927H45.3595V33.2024H50.4017V40.3327H50.4016Z" fill="#464646"/>
</svg>
