<svg width="64" height="64" viewBox="0 0 64 64" fill="none" xmlns="http://www.w3.org/2000/svg">
<path d="M29.6719 29.2883C29.0128 29.2883 28.5654 29.3524 28.3311 29.4166V33.6524C28.6083 33.7163 28.9489 33.7378 29.4167 33.7378C31.1414 33.7378 32.2061 32.8643 32.2061 31.3964C32.2061 30.0763 31.2901 29.2883 29.6719 29.2883Z" fill="#464646"/>
<path d="M50.6484 24.5271H49.4718V18.8499C49.4718 18.8145 49.4662 18.7788 49.4615 18.743C49.4596 18.5176 49.3879 18.2961 49.2336 18.1207L39.7861 7.32862C39.7833 7.32587 39.7805 7.32489 39.7786 7.32186C39.7223 7.25897 39.6566 7.20666 39.5872 7.16138C39.5667 7.14759 39.5459 7.13602 39.5244 7.1241C39.4643 7.09127 39.4005 7.06405 39.3348 7.04439C39.317 7.03941 39.301 7.03212 39.2832 7.02749C39.2119 7.01059 39.1378 7 39.0627 7H15.8444C14.7842 7 13.9228 7.8623 13.9228 8.92165V24.5266H12.7465C11.2298 24.5266 10 25.7559 10 27.2731V41.5554C10 43.0716 11.2298 44.3017 12.7465 44.3017H13.9229V54.0783C13.9229 55.1376 14.7843 56 15.8445 56H47.5503C48.6096 56 49.4719 55.1377 49.4719 54.0783V44.3017H50.6485C52.1647 44.3017 53.3948 43.0716 53.3948 41.5554V27.2736C53.3947 25.7564 52.1647 24.5271 50.6484 24.5271ZM15.8444 8.92201H38.1019V18.7534C38.1019 19.2842 38.5326 19.7142 39.0627 19.7142H47.5502V24.5277H15.8444V8.92201ZM35.4195 31.3106C35.4195 32.7154 34.9512 33.9075 34.1003 34.7172C32.9926 35.7601 31.3535 36.2278 29.4385 36.2278C29.0126 36.2278 28.6288 36.2073 28.3308 36.1645V41.2944H25.1166V27.1392C26.1177 26.9679 27.5223 26.8408 29.502 26.8408C31.5028 26.8408 32.9292 27.2236 33.8882 27.9903C34.8026 28.7138 35.4195 29.9061 35.4195 31.3106ZM14.9399 41.188L15.3025 38.5698C15.7498 38.719 16.3238 38.8259 16.9624 38.8259C18.3257 38.8259 19.1765 38.2076 19.1765 35.9728V26.9468H22.4118V36.015C22.4118 40.1025 20.4529 41.5282 17.3029 41.5282C16.5585 41.5287 15.5789 41.402 14.9399 41.188ZM47.5503 53.5582H15.8444V44.3017H47.5502V53.5582H47.5503ZM49.4708 40.635C48.4707 40.9755 46.5763 41.4437 44.6801 41.4437C42.0632 41.4437 40.1679 40.7837 38.8487 39.5067C37.5286 38.2724 36.8038 36.3991 36.8259 34.2914C36.8464 29.5229 40.3162 26.7982 45.0216 26.7982C46.8737 26.7982 48.3008 27.1594 49.0026 27.5004L48.3214 30.0973C47.5333 29.7567 46.5538 29.4799 44.9784 29.4799C42.2753 29.4799 40.2327 31.0131 40.2327 34.121C40.2327 37.0799 42.0839 38.8255 44.7453 38.8255C45.4902 38.8255 46.0865 38.7401 46.3417 38.6121V35.6106H44.1274V33.0777H49.4707V40.635H49.4708Z" fill="#464646"/>
</svg>
