<svg width="64" height="64" viewBox="0 0 64 64" fill="none" xmlns="http://www.w3.org/2000/svg">
<path d="M11.4373 7H53.5992L54 19.5845H52.2144C51.3398 15.6308 50.2223 13.0632 48.8619 11.8819C47.5257 10.6765 44.6955 10.0738 40.3712 10.0738H36.2169V47.972C36.2169 50.8408 36.6664 52.6248 37.5653 53.324C38.4641 53.999 40.4319 54.445 43.4686 54.662V56H21.7136V54.662C24.8718 54.4209 26.8395 53.9026 27.6169 53.107C28.3944 52.3114 28.7831 50.3105 28.7831 47.1041V10.0738H24.6288C20.4989 10.0738 17.6808 10.6645 16.1746 11.8458C14.6927 13.0271 13.5751 15.6066 12.822 19.5845H11L11.4373 7Z" fill="#464646"/>
</svg>
