<svg width="64" height="64" viewBox="0 0 64 64" fill="none" xmlns="http://www.w3.org/2000/svg">
<path fill-rule="evenodd" clip-rule="evenodd" d="M50.5371 25C50.5371 32.3279 44.5967 38.2683 37.2685 38.2683C29.9404 38.2683 24 32.3279 24 25C24 17.6721 29.9404 11.7317 37.2685 11.7317C44.5967 11.7317 50.5371 17.6721 50.5371 25ZM53.2685 25C53.2685 33.8367 46.1055 41 37.2685 41C33.6435 41 30.2998 39.7944 27.6172 37.7625C27.5146 37.9749 27.373 38.1731 27.1943 38.3469L10.5156 54.5374C9.69432 55.3345 8.38279 55.3152 7.58592 54.4939C6.78807 53.6726 6.8076 52.3606 7.62889 51.5635L24.3076 35.373C24.456 35.2292 24.6201 35.1118 24.7949 35.021C22.5888 32.2786 21.2685 28.7935 21.2685 25C21.2685 16.1633 28.4316 9 37.2685 9C46.1055 9 53.2685 16.1633 53.2685 25Z" fill="#464646"/>
</svg>
