<svg width="64" height="64" viewBox="0 0 64 64" fill="none" xmlns="http://www.w3.org/2000/svg">
<path fill-rule="evenodd" clip-rule="evenodd" d="M50.5367 25C50.5367 32.3279 44.5963 38.2683 37.2684 38.2683C29.9405 38.2683 24.0001 32.3279 24.0001 25C24.0001 17.6721 29.9405 11.7317 37.2684 11.7317C44.5963 11.7317 50.5367 17.6721 50.5367 25ZM53.2684 25C53.2684 33.8366 46.1049 41 37.2684 41C33.6434 41 30.3001 39.7945 27.6172 37.7626C27.5146 37.9749 27.3736 38.1732 27.1946 38.3469L10.5157 54.5374C9.69446 55.3346 8.38251 55.3151 7.58535 54.4939C6.78819 53.6726 6.80768 52.3607 7.62889 51.5635L24.3078 35.3731C24.4561 35.2292 24.6203 35.1119 24.7946 35.0211C22.5886 32.2787 21.2684 28.7935 21.2684 25C21.2684 16.1634 28.4318 9 37.2684 9C46.1049 9 53.2684 16.1634 53.2684 25Z" fill="#464646"/>
<path d="M32.7857 25.2858C32.3518 25.2858 32 24.934 32 24.5001V24.5001C32 24.0661 32.3518 23.7144 32.7857 23.7144L42.2143 23.7144C42.6482 23.7144 43 24.0661 43 24.5001V24.5001C43 24.934 42.6482 25.2858 42.2143 25.2858L32.7857 25.2858Z" fill="#464646"/>
</svg>
