<svg width="64" height="64" viewBox="0 0 64 64" fill="none" xmlns="http://www.w3.org/2000/svg">
<path d="M49.7125 8C48.6201 8 47.5698 8.20994 46.5614 8.62982C45.5531 9.0497 44.6497 9.65853 43.8514 10.4563L11.9621 42.3252L9.63023 54.0398L9 57L11.9621 56.3702L23.6842 54.0398L55.5736 22.171C56.666 21.0793 57.3803 19.8406 57.7164 18.455C58.0945 17.0274 58.0945 15.6208 57.7164 14.2352C57.3803 12.8076 56.666 11.548 55.5736 10.4563C54.7753 9.65853 53.872 9.0497 52.8637 8.62982C51.8553 8.20994 50.8049 8 49.7125 8ZM49.7125 11.8419C50.7629 11.8419 51.7713 12.3248 52.7376 13.2905C53.704 14.2562 54.1871 15.2639 54.1871 16.3136C54.1871 17.3633 53.704 18.371 52.7376 19.3368L51.2881 20.7224L45.301 14.7391L46.6875 13.2905C47.6538 12.3248 48.6622 11.8419 49.7125 11.8419ZM42.465 17.5733L48.4521 23.5566L24.0624 47.9306C22.7179 45.2853 20.7222 43.2909 18.0752 41.9473L42.465 17.5733ZM15.4913 45.2224C16.7098 45.7262 17.7601 46.44 18.6424 47.3638C19.5668 48.2455 20.281 49.2952 20.7852 50.5129L14.1678 51.8355L15.4913 45.2224Z" fill="#464646"/>
</svg>
