<svg width="64" height="64" viewBox="0 0 64 64" fill="none" xmlns="http://www.w3.org/2000/svg">
<path d="M13.4681 57C15.2012 57 16.7073 56.3475 17.9865 55.0425L18.1722 54.8531L19.4101 56.0528L52.0909 22.7126L54.381 10.9678L55 8L52.0909 8.63144L40.5783 10.9678L7.89749 44.308L9.07351 45.5077L8.94971 45.634L8.88782 45.7603C8.06255 46.6022 7.50549 47.5915 7.21664 48.7281C6.92779 49.8647 6.92779 50.9802 7.21664 52.0747C7.50549 53.2113 8.06255 54.2006 8.88782 55.0425C9.50678 55.674 10.2289 56.1581 11.0542 56.4948C11.8382 56.8316 12.6428 57 13.4681 57ZM13.4681 53.0219C12.8079 53.0219 12.2095 52.7483 11.6731 52.201C11.1367 51.6538 10.8685 51.0434 10.8685 50.3698C10.8685 49.7384 11.1367 49.1491 11.6731 48.6018L11.8588 48.4124L15.3869 52.0116L15.2012 52.201C14.6647 52.7483 14.087 53.0219 13.4681 53.0219ZM19.3482 50.3698L13.4681 44.3711L16.3153 41.4034L22.2573 47.4652L19.3482 50.3698ZM24.9807 44.5606L19.1625 38.625L39.8356 17.4716L40.6402 21.134L40.8878 22.3969L42.1257 22.6495L45.7157 23.4704L24.9807 44.5606ZM48.5629 19.9974L44.2302 18.9871L43.2398 14.567L47.2631 13.7461L49.3675 15.893L48.5629 19.9974Z" fill="#464646"/>
</svg>
