<svg width="64" height="64" viewBox="0 0 64 64" fill="none" xmlns="http://www.w3.org/2000/svg">
<path d="M38.4868 7C36.6585 7 35.1065 7.57644 33.8309 8.72933V8.79338L9.9134 32.6198C8.68032 33.858 8.04252 35.3739 8 37.1673C8 38.9179 8.59528 40.4551 9.78584 41.7788L9.84962 41.8429H9.9134L22.1591 54.1404C23.3922 55.3786 24.8804 55.9978 26.6237 55.9978C28.4096 56.0405 29.9616 55.464 31.2797 54.2685V54.2044L55.0058 30.378C55.8562 29.524 56.4302 28.5419 56.7279 27.4318C57.068 26.2789 57.0893 25.1473 56.7917 24.0371C56.5365 22.9269 56.005 21.9662 55.1972 21.1549L42.9514 8.85743C41.7183 7.61914 40.2301 7 38.4868 7ZM38.423 11.1632C39.1459 11.1632 39.6986 11.3554 40.0813 11.7397L52.3271 24.0371C52.7523 24.4641 52.9436 25.0192 52.9011 25.7024C52.9011 26.3856 52.646 26.9834 52.1357 27.4958L41.8671 37.8078L26.2411 22.1157L36.6372 11.7397C37.1049 11.3554 37.7002 11.1632 38.423 11.1632ZM23.3072 25.0619L38.9333 40.754L28.4734 51.2581C27.9631 51.6851 27.3466 51.8986 26.6237 51.8986C25.9434 51.8559 25.4119 51.6424 25.0292 51.2581L12.8473 39.0887L12.7835 38.9606C12.3583 38.4483 12.1457 37.8505 12.1457 37.1673C12.1882 36.4414 12.4008 35.8863 12.7835 35.502L23.3072 25.0619Z" fill="#464646"/>
</svg>
