<svg width="64" height="64" viewBox="0 0 64 64" fill="none" xmlns="http://www.w3.org/2000/svg">
<path d="M31.2083 7C30.0339 7 28.9839 7.38281 28.0586 8.14844C27.1688 8.8776 26.5816 9.80729 26.2969 10.9375C25.6207 10.6458 24.98 10.5 24.375 10.5C22.987 10.5 21.7769 11.0286 20.7448 12.0859C19.7483 13.1068 19.25 14.3281 19.25 15.75V34.5625L17.7552 33.0312C16.7587 32.0104 15.5486 31.5 14.125 31.5C12.7014 31.5 11.4913 32.0104 10.4948 33.0312C9.49826 34.0521 9 35.2917 9 36.75C9 38.2083 9.49826 39.4479 10.4948 40.4687L22.0794 52.3359C23.1827 53.4297 24.375 54.3047 25.6562 54.9609C27.0799 55.6536 28.5747 56 30.1406 56H38.0417C40.2127 56 42.2057 55.4531 44.0208 54.3594C45.8715 53.2656 47.3307 51.7891 48.3984 49.9297C49.4661 48.0339 50 45.974 50 43.75V22.75C50 21.3281 49.4839 20.1068 48.4518 19.0859C47.4553 18.0286 46.263 17.5 44.875 17.5C44.3411 17.5 43.7717 17.6094 43.1667 17.8281V15.75C43.1667 14.3281 42.6506 13.1068 41.6185 12.0859C40.622 11.0286 39.4297 10.5 38.0417 10.5C37.4366 10.5 36.796 10.6458 36.1198 10.9375C35.8351 9.80729 35.23 8.8776 34.3047 8.14844C33.4149 7.38281 32.3828 7 31.2083 7ZM31.2083 10.5C31.7066 10.5 32.1159 10.6641 32.4362 10.9922C32.7565 11.3203 32.9167 11.7396 32.9167 12.25V29.75H36.3333V15.75C36.3333 15.2396 36.4935 14.8203 36.8138 14.4922C37.1341 14.1641 37.5434 14 38.0417 14C38.5399 14 38.9492 14.1641 39.2695 14.4922C39.5898 14.8203 39.75 15.2396 39.75 15.75V29.75H43.1667V22.75C43.1667 22.2396 43.3268 21.8203 43.6471 21.4922C43.9674 21.1641 44.3767 21 44.875 21C45.3733 21 45.7826 21.1641 46.1029 21.4922C46.4232 21.8203 46.5833 22.2396 46.5833 22.75V43.75C46.5833 45.3542 46.1918 46.8307 45.4089 48.1797C44.6615 49.4922 43.6293 50.5495 42.3125 51.3516C41.0312 52.1172 39.6076 52.5 38.0417 52.5H30.1406C28.1476 52.5 26.2791 51.6068 24.5352 49.8203L12.8971 38.0078C12.5412 37.6432 12.3633 37.224 12.3633 36.75C12.3633 36.276 12.5412 35.8568 12.8971 35.4922C13.253 35.1276 13.6623 34.9453 14.125 34.9453C14.5877 34.9453 14.997 35.1276 15.3529 35.4922L22.6667 43.0391V15.75C22.6667 15.2396 22.8268 14.8203 23.1471 14.4922C23.4674 14.1641 23.8767 14 24.375 14C24.8733 14 25.2826 14.1641 25.6029 14.4922C25.9232 14.8203 26.0833 15.2396 26.0833 15.75V29.75H29.5V12.25C29.5 11.7396 29.6602 11.3203 29.9805 10.9922C30.3008 10.6641 30.7101 10.5 31.2083 10.5Z" fill="#464646"/>
</svg>
