<svg width="64" height="66" viewBox="0 0 64 66" fill="none" xmlns="http://www.w3.org/2000/svg">
<path fill-rule="evenodd" clip-rule="evenodd" d="M46.4256 9.3444C47.155 10.5458 46.7724 12.1109 45.5711 12.8404L24.059 25.9015L45.6678 34.5596C46.5529 34.9143 47.1655 35.734 47.2549 36.6833C47.3443 37.6326 46.8955 38.5523 46.0921 39.0659L18.7083 56.5737C17.5241 57.3307 15.9505 56.9845 15.1934 55.8004C14.4364 54.6163 14.7826 53.0426 15.9667 52.2856L39.1811 37.4435L17.4383 28.7317C16.5433 28.3731 15.9279 27.5395 15.8486 26.5786C15.7694 25.6178 16.24 24.6946 17.0641 24.1942L42.9296 8.48986C44.131 7.76045 45.6962 8.14304 46.4256 9.3444Z" fill="#464646"/>
</svg>
