<svg width="512" height="512" viewBox="0 0 512 512" fill="none" xmlns="http://www.w3.org/2000/svg">
<rect width="512" height="512" fill="#720090"/>
<path d="M405.925 271.527C405.925 355.183 338.109 423 254.452 423C170.796 423 102.979 355.183 102.979 271.527C102.979 187.871 170.796 120.054 254.452 120.054C338.109 120.054 405.925 187.871 405.925 271.527Z" fill="white"/>
<path d="M330.75 120.054C330.75 160.952 297.595 194.107 256.697 194.107C215.798 194.107 182.643 160.952 182.643 120.054C182.643 79.1549 215.798 46 256.697 46C297.595 46 330.75 79.1549 330.75 120.054Z" fill="white"/>
<path fill-rule="evenodd" clip-rule="evenodd" d="M256.697 174.107C286.55 174.107 310.75 149.907 310.75 120.054C310.75 90.2006 286.55 66 256.697 66C226.844 66 202.643 90.2006 202.643 120.054C202.643 149.907 226.844 174.107 256.697 174.107ZM256.697 194.107C297.595 194.107 330.75 160.952 330.75 120.054C330.75 79.1549 297.595 46 256.697 46C215.798 46 182.643 79.1549 182.643 120.054C182.643 160.952 215.798 194.107 256.697 194.107Z" fill="#720090"/>
<path d="M464.271 342.214C464.271 383.113 431.116 416.268 390.217 416.268C349.318 416.268 316.164 383.113 316.164 342.214C316.164 301.316 349.318 268.161 390.217 268.161C431.116 268.161 464.271 301.316 464.271 342.214Z" fill="white"/>
<path fill-rule="evenodd" clip-rule="evenodd" d="M390.217 396.268C420.07 396.268 444.271 372.067 444.271 342.214C444.271 312.361 420.07 288.161 390.217 288.161C360.364 288.161 336.164 312.361 336.164 342.214C336.164 372.067 360.364 396.268 390.217 396.268ZM390.217 416.268C431.116 416.268 464.271 383.113 464.271 342.214C464.271 301.316 431.116 268.161 390.217 268.161C349.318 268.161 316.164 301.316 316.164 342.214C316.164 383.113 349.318 416.268 390.217 416.268Z" fill="#720090"/>
<path d="M196.107 342.214C196.107 383.113 162.952 416.268 122.054 416.268C81.1549 416.268 48 383.113 48 342.214C48 301.316 81.1549 268.161 122.054 268.161C162.952 268.161 196.107 301.316 196.107 342.214Z" fill="white"/>
<path fill-rule="evenodd" clip-rule="evenodd" d="M122.054 396.268C151.907 396.268 176.107 372.067 176.107 342.214C176.107 312.361 151.907 288.161 122.054 288.161C92.2006 288.161 68 312.361 68 342.214C68 372.067 92.2006 396.268 122.054 396.268ZM122.054 416.268C162.952 416.268 196.107 383.113 196.107 342.214C196.107 301.316 162.952 268.161 122.054 268.161C81.1549 268.161 48 301.316 48 342.214C48 383.113 81.1549 416.268 122.054 416.268Z" fill="#720090"/>
<path d="M238.032 304.855L188 279.488V265.441L238.032 240.19V256.734L203.134 272.29L238.032 288.427V304.855Z" fill="#720090"/>
<path d="M242.662 316L260.734 228H271.238L252.968 316H242.662Z" fill="#720090"/>
<path d="M275.918 304.913V288.485L310.866 272.464L275.918 256.617V240.306L326 265.557V279.488L275.918 304.913Z" fill="#720090"/>
</svg>
