<svg width="64" height="64" viewBox="0 0 64 64" fill="none" xmlns="http://www.w3.org/2000/svg">
<path fill-rule="evenodd" clip-rule="evenodd" d="M23.8445 8C25.0285 8 25.9883 8.95979 25.9883 10.1438L25.9883 54.8563C25.9883 56.0402 25.0285 57 23.8445 57C22.6606 57 21.7008 56.0402 21.7008 54.8563L21.7008 10.1437C21.7008 8.95979 22.6606 8 23.8445 8Z" fill="#464646"/>
<path fill-rule="evenodd" clip-rule="evenodd" d="M39.7693 8C40.9533 8 41.9131 8.95979 41.9131 10.1438L41.9131 54.8563C41.9131 56.0402 40.9533 57 39.7693 57C38.5854 57 37.6256 56.0402 37.6256 54.8563L37.6256 10.1437C37.6256 8.95979 38.5854 8 39.7693 8Z" fill="#464646"/>
<path fill-rule="evenodd" clip-rule="evenodd" d="M7 23.6184C7 22.4344 7.95979 21.4746 9.14375 21.4746L53.8563 21.4746C55.0402 21.4746 56 22.4344 56 23.6184C56 24.8023 55.0402 25.7621 53.8563 25.7621L9.14375 25.7621C7.95979 25.7621 7 24.8023 7 23.6184Z" fill="#464646"/>
<path fill-rule="evenodd" clip-rule="evenodd" d="M7 40.7688C7 39.5848 7.95979 38.625 9.14375 38.625L53.8563 38.625C55.0402 38.625 56 39.5848 56 40.7688C56 41.9527 55.0402 42.9125 53.8563 42.9125L9.14375 42.9125C7.95979 42.9125 7 41.9527 7 40.7688Z" fill="#464646"/>
</svg>
